<?xml version="1.0" encoding="UTF-8"?>
<svg width="220px" height="91px" viewBox="0 0 220 91" version="1.1" xmlns="http://www.w3.org/2000/svg" xmlns:xlink="http://www.w3.org/1999/xlink">
    <!-- Generator: Sketch 49.2 (51160) - http://www.bohemiancoding.com/sketch -->
    <title>Artboard</title>
    <desc>Created with Sketch.</desc>
    <defs></defs>
    <g id="Artboard" stroke="none" stroke-width="1" fill="none" fill-rule="evenodd">
        <g id="Group" transform="translate(8.000000, 13.000000)">
            <path d="M11.352,18 L7.92,18 L7.92,0.864 L14.664,0.864 C21.336,0.864 21.312,11.448 14.664,11.448 L11.352,11.448 L11.352,18 Z M11.352,8.112 L14.376,8.112 C16.68,8.112 16.68,4.272 14.376,4.272 L11.352,4.272 L11.352,8.112 Z M19.728,18 L26.952,0.216 L27.312,0.216 L34.536,18 L30.672,18 L29.976,16.152 L24.288,16.152 L23.616,18 L19.728,18 Z M25.536,12.936 L28.704,12.936 L27.144,8.472 L25.536,12.936 Z M49.368,18 L45.48,18 L42.024,11.448 L40.368,11.448 L40.368,18 L36.936,18 L36.936,0.84 L43.704,0.84 C49.824,0.84 50.424,9.456 45.384,10.92 L49.368,18 Z M40.368,4.272 L40.368,8.112 L43.392,8.112 C45.72,8.112 45.72,4.272 43.392,4.272 L40.368,4.272 Z M58.752,10.728 L62.808,10.728 L64.008,12.264 C65.76,9.192 64.344,4.224 59.688,4.224 C52.992,4.224 52.992,14.592 59.688,14.592 C60.432,14.592 61.08,14.472 61.632,14.256 L58.752,10.728 Z M63.936,17.112 C62.76,17.712 61.368,18.048 59.688,18.048 C48.168,18.048 48.168,0.744 59.688,0.744 C68.256,0.744 70.464,10.32 66.312,15.216 L68.568,18.096 L64.776,18.096 L63.936,17.112 Z M84.096,12.024 C84.096,20.184 71.688,20.184 71.688,12.024 L71.688,0.84 L75.12,0.84 L75.12,12 C75.12,15.6 80.688,15.6 80.688,12 L80.688,0.84 L84.096,0.84 L84.096,12.024 Z M96.768,18 L87.888,18 L87.888,0.84 L96.48,0.84 L96.48,4.272 L91.32,4.272 L91.32,7.704 L95.832,7.704 L95.832,11.136 L91.32,11.136 L91.32,14.568 L96.768,14.568 L96.768,18 Z" id="parque" fill="#309DB9"></path>
            <path d="M83.6837777,56.1574113 C94.5754749,54.2775568 115.933894,53 140.5,53 C176.122366,53 205,55.6862915 205,59 C205,62.3137085 176.122366,65 140.5,65 C119.976344,65 101.691557,64.1083035 89.8785019,62.7186652 C82.089319,62.899743 73.5104238,63 64.5,63 C28.8776336,63 0,61.4329966 0,59.5 C0,57.5670034 28.8776336,56 64.5,56 C71.1804617,56 77.6237138,56.0551109 83.6837777,56.1574113 Z" id="Combined-Shape" fill-opacity="0.08" fill="#020202"></path>
            <path d="M7.9921875,20.2890625 L14.4960938,20.2890625 L14.4960938,59.390625 L7.9921875,59.390625 L7.9921875,20.2890625 Z M19.671875,24.9765625 L26.0976562,24.9765625 L30.4335938,41.9296875 L30.4335938,24.9765625 L36.5273438,24.9765625 L36.5273438,59.390625 L30.1015625,59.390625 L25.9609375,42.90625 L25.9609375,59.390625 L19.671875,59.390625 L19.671875,24.9765625 Z M58.0703125,52.5742188 C58.0703125,57.5221602 55.2578406,60.0026041 49.6328125,60.015625 C44.0208053,60.015625 41.2148438,57.5351811 41.2148438,52.5742188 L41.2148438,31.9492188 C41.2148438,27.0012773 44.0208053,24.5273438 49.6328125,24.5273438 C55.2578406,24.5273438 58.0703125,27.0012773 58.0703125,31.9492188 L58.0703125,52.5742188 Z M51.5664062,31.9492188 C51.5664062,30.6601498 50.9283918,30.0091146 49.6523438,29.9960938 L49.6132812,29.9960938 C48.3502541,29.9960938 47.71875,30.6471289 47.71875,31.9492188 L47.71875,52.5742188 C47.71875,53.8632877 48.3567645,54.5078125 49.6328125,54.5078125 C50.9218814,54.5078125 51.5664062,53.8632877 51.5664062,52.5742188 L51.5664062,31.9492188 Z M73.7734375,42.1835938 L81.234375,59.390625 L74.28125,59.390625 L69.2617188,46.578125 L69.2617188,59.390625 L62.7578125,59.390625 L62.7578125,24.9765625 L69.2617188,24.9765625 L69.2617188,37.7890625 L74.28125,24.9765625 L81.234375,24.9765625 L73.7734375,42.1835938 Z M101,47.046875 L102.855469,59.390625 L96.2929688,59.390625 L95.21875,52.2421875 L90.4335938,52.2421875 L89.3398438,59.390625 L82.796875,59.390625 L84.6523438,47.1054688 L88.6171875,24.9765625 L97.0546875,24.9765625 L101,47.046875 Z M94.3789062,46.734375 L92.8164062,36.3242188 L91.2539062,46.734375 L94.3789062,46.734375 Z M105.785156,31.9492188 C105.785156,27.0012773 108.591118,24.5273438 114.203125,24.5273438 C119.828153,24.5273438 122.640625,27.0012773 122.640625,31.9492188 L122.640625,36.8320312 L116.136719,36.8320312 L116.136719,31.9492188 C116.136719,30.6601498 115.498704,30.0091146 114.222656,29.9960938 L114.183594,29.9960938 C112.920567,29.9960938 112.289062,30.6471289 112.289062,31.9492188 L112.289062,34.9960938 C112.289062,36.4023508 113.955713,38.1601457 117.289062,40.2695312 C120.856789,42.4961049 122.640625,45.1783697 122.640625,48.3164062 L122.640625,52.5742188 C122.640625,57.5351811 119.834663,60.015625 114.222656,60.015625 C108.597628,60.0026041 105.785156,57.5221602 105.785156,52.5742188 L105.785156,47.6914062 L112.289062,47.6914062 L112.289062,52.5742188 C112.289062,53.8632877 112.933587,54.5078125 114.222656,54.5078125 C115.498704,54.5078125 116.136719,53.8632877 116.136719,52.5742188 L116.136719,48.7265625 C116.136719,47.2031174 114.470069,45.3867293 111.136719,43.2773438 C107.568993,41.0377492 105.785156,38.3164223 105.785156,35.1132812 L105.785156,31.9492188 Z M127.328125,24.9765625 L133.832031,24.9765625 L133.832031,39.4296875 L137.679688,39.4296875 L137.679688,24.9765625 L144.183594,24.9765625 L144.183594,59.390625 L137.679688,59.390625 L137.679688,44.9375 L133.832031,44.9375 L133.832031,59.390625 L127.328125,59.390625 L127.328125,24.9765625 Z M149.359375,24.9765625 L155.863281,24.9765625 L155.863281,59.390625 L149.359375,59.390625 L149.359375,24.9765625 Z M161.039062,24.9765625 L169.574219,24.9765625 C174.80862,24.9895834 177.425781,27.4700273 177.425781,32.4179688 L177.425781,37.4960938 C177.425781,40.6080885 176.006525,42.6262975 173.167969,43.5507812 L179.4375,59.390625 L172.347656,59.390625 L167.894531,44.5859375 L167.542969,44.5859375 L167.542969,59.390625 L161.039062,59.390625 L161.039062,24.9765625 Z M167.542969,30.4648438 L167.542969,39.4296875 L168.324219,39.4296875 C169.027347,39.4296875 169.483072,39.3971357 169.691406,39.3320312 C170.511723,39.0455715 170.921875,38.4335984 170.921875,37.4960938 L170.921875,32.4179688 C170.921875,31.1158789 170.283861,30.4648438 169.007812,30.4648438 L167.542969,30.4648438 Z M199.007812,47.046875 L200.863281,59.390625 L194.300781,59.390625 L193.226562,52.2421875 L188.441406,52.2421875 L187.347656,59.390625 L180.804688,59.390625 L182.660156,47.1054688 L186.625,24.9765625 L195.0625,24.9765625 L199.007812,47.046875 Z M192.386719,46.734375 L190.824219,36.3242188 L189.261719,46.734375 L192.386719,46.734375 Z" id="Inokashira" fill="#990071"></path>
        </g>
    </g>
</svg>